<svg width="240" height="40" viewBox="0 0 240 40" fill="none" xmlns="http://www.w3.org/2000/svg">
<g clip-path="url(#clip0_851_1141)">
<rect x="25.449" y="6.11084" width="210" height="30.3572" rx="5.92656" transform="rotate(-1.15141 25.449 6.11084)" fill="#FFF218"/>
<path d="M100.611 13.9807C103.727 13.918 105.433 15.6321 105.482 18.0636C105.531 20.4951 103.895 22.2764 100.779 22.339L98.2148 22.3905L98.314 27.3295L95.7306 27.3814L95.4633 14.0841L100.611 13.9807ZM100.906 20.132C102.084 20.1083 102.847 19.3138 102.823 18.117C102.799 16.9203 102.004 16.1571 100.827 16.1808L98.0911 16.2358L98.1705 20.187L100.906 20.132ZM113.644 27.2495C109.54 27.3319 106.519 24.5041 106.439 20.5149C106.359 16.5257 109.264 13.5787 113.367 13.4962C117.47 13.4138 120.492 16.2416 120.572 20.2308C120.652 24.22 117.747 27.167 113.644 27.2495ZM113.596 24.8559C116.198 24.8036 117.928 22.9635 117.875 20.285C117.821 17.6066 116.018 15.8374 113.415 15.8897C110.813 15.9421 109.082 17.7822 109.136 20.4607C109.19 23.1391 110.993 24.9082 113.596 24.8559ZM134.743 26.5973L131.058 26.6714L124.97 20.6745L125.093 26.7913L122.51 26.8432L122.243 13.5459L124.826 13.494L124.942 19.2498L130.563 13.3787L133.925 13.3111L127.745 19.7446L134.743 26.5973ZM135.781 26.5765L135.514 13.2792L138.098 13.2272L138.365 26.5245L135.781 26.5765ZM148.93 19.2238C150.347 19.7844 151.205 20.8504 151.237 22.4461C151.282 24.6686 149.604 26.2986 146.356 26.3639L140.923 26.4731L140.656 13.1758L145.785 13.0727C148.881 13.0105 150.544 14.4594 150.586 16.5109C150.606 17.5177 150.134 18.6105 148.93 19.2238ZM146.02 15.3105L143.189 15.3673L143.252 18.5017L146.083 18.4448C147.203 18.4223 147.931 17.7615 147.911 16.7737C147.893 15.8619 147.14 15.2879 146.02 15.3105ZM146.595 24.0977C147.792 24.0736 148.575 23.3357 148.553 22.2339C148.533 21.2271 147.702 20.5597 146.24 20.5891L143.295 20.6483L143.366 24.1626L146.595 24.0977ZM168.523 12.6157L168.79 25.913L166.207 25.965L165.987 15.0612L159.567 15.1902L159.786 26.094L157.202 26.1459L156.935 12.8486L168.523 12.6157ZM177.657 25.9629C173.554 26.0453 170.532 23.2175 170.452 19.2283C170.372 15.2391 173.277 12.2921 177.381 12.2096C181.484 12.1272 184.505 14.955 184.585 18.9442C184.666 22.9334 181.76 25.8804 177.657 25.9629ZM177.609 23.5694C180.211 23.517 181.942 21.6769 181.888 18.9984C181.834 16.32 180.031 14.5509 177.429 14.6032C174.826 14.6555 173.096 16.4956 173.15 19.1741C173.203 21.8525 175.006 23.6217 177.609 23.5694ZM191.404 12.1558C194.519 12.0932 196.226 13.8073 196.275 16.2388C196.324 18.6703 194.687 20.4515 191.572 20.5142L189.008 20.5657L189.107 25.5047L186.523 25.5566L186.256 12.2593L191.404 12.1558ZM191.699 18.3072C192.876 18.2835 193.64 17.489 193.616 16.2922C193.592 15.0955 192.797 14.3323 191.619 14.356L188.884 14.4109L188.963 18.3621L191.699 18.3072ZM206.814 11.8461L209.701 11.7881L203.073 25.224L200.205 25.2816L201.94 21.8261L196.252 12.0584L199.196 11.9992L203.332 19.2136L206.814 11.8461ZM218.859 11.604L221.443 11.5521L221.71 24.8494L219.127 24.9013L219.002 18.7086C217.96 19.8128 216.624 20.4477 215.237 20.4756C212.615 20.5283 210.755 18.7223 210.701 16.0439L210.615 11.7507L213.198 11.7178L213.284 15.9539C213.309 17.2267 214.237 18.0062 215.7 17.9768C216.782 17.955 217.954 17.6084 218.968 17.0179L218.859 11.604Z" fill="#221F1F"/>
<path d="M39.9061 20.0882C39.8622 31.1355 30.8745 40.0439 19.8652 39.9998C8.85594 39.9557 -0.0437872 30.9591 0.000162077 19.9118C0.0441114 8.86448 9.03174 -0.043938 20.041 0.000163037C31.0723 0.0442641 39.9501 9.04088 39.9061 20.0882Z" fill="#221F1F"/>
<path d="M27.1393 29.9007C25.0297 33.6934 22.4148 36.8026 19.4921 36.7364C17.6682 36.6923 15.9322 36.0087 14.3501 34.9283C14.8555 34.0021 18.0418 29.3715 27.1393 29.9007ZM39.3792 20.0883C39.3352 30.8269 30.5893 39.5148 19.8657 39.4486C9.14207 39.4045 0.528015 30.6505 0.528015 19.9118C0.528015 12.9439 4.00001 7.93841 7.29621 5.24824C11.3395 1.96271 14.0864 4.47647 15.0533 6.39487C14.9434 5.579 14.6138 3.24164 13.7128 1.5658C15.6905 0.882233 17.8221 0.507374 20.0415 0.529424C30.7651 0.595576 39.4231 9.32759 39.3792 20.0883ZM18.9208 8.88658C21.7335 6.96818 26.5899 5.90976 29.161 9.92295C27.6008 0.74993 20.8546 6.02001 18.9208 8.88658ZM15.0093 17.5524C15.6026 16.8909 16.2838 16.2294 17.0749 15.634C20.5909 12.9218 24.4364 12.2383 25.689 14.1346C26.1724 14.8623 26.1944 15.8766 25.8208 16.9791C27.0734 14.9064 27.4689 12.988 26.6998 11.9296C25.4033 10.1655 21.3819 11.3783 17.7122 14.6418C16.6354 15.5458 15.7345 16.5602 15.0093 17.5524ZM8.87838 19.1842C10.6583 19.5149 12.5921 17.2437 13.1854 14.0685C13.7787 10.8932 12.8338 8.07071 11.0539 7.7179C9.27392 7.38714 7.34015 9.65835 6.74684 12.8336C6.15352 15.9869 7.09843 18.8314 8.87838 19.1842ZM33.6218 15.3474C16.5915 26.7916 4.83504 20.9923 4.83504 20.9923C4.65925 24.9614 11.4494 37.1554 19.5361 37.3097C27.6447 37.4641 33.6218 15.3474 33.6218 15.3474ZM7.23028 12.8998C7.77965 9.98911 9.44972 7.87225 10.966 8.18096C12.4822 8.46762 13.2733 11.0696 12.7459 13.9803C12.1965 16.8909 10.5265 19.0078 9.01023 18.6991C7.472 18.4124 6.68091 15.8104 7.23028 12.8998ZM10.4606 15.3694C11.1418 15.5238 11.8889 14.6859 12.1526 13.5172C12.4163 12.3485 12.0647 11.268 11.3835 11.1357C10.922 11.0255 10.4386 11.3783 10.087 11.9737C10.3946 12.128 10.5485 12.5249 10.3946 12.8557C10.2628 13.1644 9.95514 13.3187 9.64749 13.2526C9.51564 14.289 9.84526 15.2151 10.4606 15.3694Z" fill="#05BC52"/>
<path d="M226.796 33.528L227.174 23.8265L234.957 29.6314L231.303 30.3739L233.641 35.2706L232.008 36.0499L229.67 31.1532L226.796 33.528Z" fill="white"/>
<path d="M239.736 30.7014L234.21 31.8234L236.307 36.2139L231.065 38.7166L228.969 34.3261L228.07 35.0702L224.623 37.9171L225.324 19.9518L239.736 30.7014ZM233.64 35.2708L231.302 30.3745L234.957 29.6316L227.174 23.8268L226.796 33.5283L229.67 31.1537L232.008 36.05L233.64 35.2708Z" fill="#221F1F"/>
<path d="M77.2445 28.8547C75.0299 28.9038 73.0985 28.44 71.4504 27.463C69.8023 26.486 68.5212 25.0531 67.6071 23.1641C66.6924 21.2516 66.2056 18.9642 66.1464 16.3019C66.0873 13.6397 66.4724 11.3447 67.3017 9.41703C68.1305 7.46577 69.3465 5.96556 70.9496 4.91639C72.5527 3.86722 74.4616 3.31804 76.6762 3.26885C78.8908 3.21966 80.8104 3.68381 82.435 4.66129C84.0831 5.63825 85.3644 7.08299 86.2791 8.99553C87.1931 10.8845 87.6798 13.1601 87.7389 15.8223C87.798 18.4846 87.4132 20.7913 86.5844 22.7426C85.7786 24.6698 84.5742 26.1579 82.9711 27.2071C81.368 28.2563 79.4591 28.8055 77.2445 28.8547ZM77.1126 22.9176C78.4791 22.8873 79.5029 22.287 80.184 21.1169C80.8882 19.9227 81.2155 18.2065 81.1657 15.9683C81.116 13.7302 80.7132 12.042 79.9572 10.9038C79.2242 9.7415 78.1745 9.17553 76.8081 9.20588C75.418 9.23676 74.3709 9.8493 73.6668 11.0435C72.9856 12.2136 72.6699 13.9178 72.7196 16.1559C72.7693 18.3941 73.1606 20.0943 73.8936 21.2566C74.6496 22.3948 75.7226 22.9485 77.1126 22.9176Z" fill="#05BC52"/>
<path d="M65.7189 22.9231L65.8468 28.6834L44.5371 29.1567L44.5143 28.1319L54.298 18.1207C55.2885 17.0851 56.0241 16.2438 56.5048 15.5967C56.9854 14.9496 57.3134 14.3295 57.4888 13.7363C57.6877 13.1426 57.7665 12.4455 57.7252 11.645C57.687 10.9858 57.3804 10.4505 56.8056 10.039C56.2538 9.60338 55.5774 9.39448 54.7763 9.41227C53.5983 9.43843 52.7342 9.79941 52.184 10.4952C51.6567 11.1669 51.4099 12.2567 51.4434 13.7645L45.0469 13.9066C45.0009 11.8333 45.3854 10.0451 46.2006 8.54204C47.0388 7.01486 48.2032 5.84579 49.6938 5.03483C51.1843 4.22387 52.9073 3.79667 54.8628 3.75324C56.7711 3.71085 58.4394 4.0038 59.8676 4.63207C61.3189 5.23626 62.4348 6.13076 63.2154 7.31556C64.0196 8.49983 64.4395 9.893 64.475 11.4951C64.5331 14.1102 62.9478 17.0211 59.719 20.2278L56.7426 23.1224L65.7189 22.9231Z" fill="#05BC52"/>
<path d="M87.7387 15.8218C87.6795 13.1598 87.1931 10.8843 86.279 8.99539C85.4216 7.20249 84.2419 5.82062 82.7398 4.84991L82.4347 4.66097C80.9117 3.74466 79.1294 3.2792 77.0879 3.26515L76.6759 3.2684C74.4614 3.31762 72.5523 3.86693 70.9492 4.91607L70.6538 5.11835C69.1962 6.15479 68.0791 7.58759 67.3021 9.41689C66.4728 11.3445 66.0869 13.6393 66.146 16.3014L66.1629 16.7967C66.2685 19.2486 66.75 21.3713 67.6075 23.1642C68.5215 25.053 69.802 26.4864 71.45 27.4633C72.9951 28.3791 74.7893 28.8433 76.8322 28.8573L77.2442 28.8541C79.3205 28.808 81.1285 28.3231 82.6673 27.398L82.9709 27.2074C84.5739 26.1583 85.7786 24.6698 86.5844 22.7427C87.3614 20.9135 87.7482 18.7715 87.7448 16.3174L87.7387 15.8218ZM79.2308 16.0108C79.1845 13.9285 78.8064 12.67 78.3445 11.9746L78.32 11.9358C77.9473 11.3448 77.5331 11.1252 76.8507 11.1403C76.1281 11.1564 75.697 11.4115 75.3342 12.0267L75.3332 12.0257C74.9161 12.7486 74.6077 14.0315 74.6539 16.1125C74.6997 18.1759 75.0601 19.4627 75.5158 20.2004C75.8946 20.7634 76.335 20.9984 77.0693 20.9822L77.1123 22.9177L76.8556 22.9165C75.5896 22.877 74.6026 22.3233 73.8938 21.2563C73.2067 20.1666 72.8191 18.6044 72.7325 16.5692L72.7194 16.1554C72.6697 13.9174 72.9859 12.2129 73.667 11.0428C74.3711 9.84902 75.418 9.23668 76.8078 9.20576L77.0606 9.20703C78.3044 9.24847 79.2701 9.8137 79.9572 10.9031C80.7132 12.0413 81.1156 13.7298 81.1653 15.9678L81.1706 16.3818C81.173 18.4187 80.8442 19.997 80.1841 21.1166L80.0521 21.329C79.3734 22.3594 78.3935 22.8892 77.1123 22.9177L77.0693 20.9822C77.7702 20.9666 78.1729 20.7239 78.5112 20.1427L78.5169 20.1337L78.5982 19.9873C78.9964 19.2213 79.2741 17.9593 79.2308 16.0108ZM89.6733 15.7789C89.7369 18.6429 89.3259 21.2306 88.3692 23.4879L88.3703 23.4889C87.4882 25.5985 86.1655 27.3187 84.392 28.5802L84.0306 28.8263C82.0799 30.1029 79.8059 30.7337 77.2872 30.7896C74.9258 30.842 72.7571 30.38 70.8427 29.3424L70.4632 29.1276C68.4572 27.9384 66.9279 26.2035 65.8647 24.0064L65.8606 23.9987C65.8182 23.9099 65.7783 23.8198 65.7376 23.73L65.7197 22.9229L65.4032 22.9299C64.6495 20.9695 64.2652 18.763 64.2114 16.3444C64.1479 13.4804 64.5581 10.8993 65.5199 8.65984L65.7063 8.24067C66.6654 6.1703 68.0545 4.49817 69.8895 3.29718L70.259 3.06474C72.1254 1.94334 74.2717 1.38632 76.6329 1.33385C79.146 1.27803 81.4352 1.80536 83.4205 2.99665L83.4215 2.99662C85.4339 4.18948 86.9633 5.94025 88.0249 8.15999L88.0239 8.16001C89.0843 10.3547 89.6096 12.9146 89.6733 15.7789Z" fill="#FFF218"/>
<path d="M65.719 22.9229L56.7422 23.1223L59.7189 20.2277C62.8469 17.1211 64.4323 14.2921 64.4754 11.7407L64.4748 11.4949C64.4415 9.99304 64.07 8.67508 63.3612 7.5404L63.2156 7.31546C62.435 6.13067 61.3185 5.23632 59.8672 4.63213C58.5282 4.04315 56.9783 3.74848 55.2173 3.74896L54.8623 3.75291C52.9071 3.79639 51.1845 4.22425 49.6941 5.03511L49.4182 5.19073C48.0589 5.99297 46.9868 7.11032 46.2009 8.54213C45.3858 10.0451 45.0004 11.8331 45.0464 13.9062L51.4428 13.7641C51.4094 12.2566 51.6565 11.1669 52.1836 10.4952C52.7338 9.79944 53.5986 9.43802 54.7766 9.41186L55.0707 9.41614C55.7444 9.45016 56.3228 9.6574 56.8057 10.0385C57.3805 10.45 57.6873 10.9857 57.7255 11.6448C57.7669 12.4452 57.6876 13.1424 57.4887 13.736L57.416 13.9599C57.2291 14.4849 56.9248 15.0308 56.5043 15.597L56.3122 15.8481C55.8359 16.4568 55.1649 17.2145 54.2983 18.1205L44.5146 28.1314L44.5374 29.1567L65.847 28.6833L65.719 22.9229ZM66.4094 11.4519C66.4815 14.6984 64.6355 17.9226 61.5946 21.079L66.7888 20.9637C67.0067 21.7451 67.2791 22.479 67.6068 23.1643C67.6247 23.2013 67.6441 23.2375 67.6623 23.2742L67.8245 30.5749L42.6448 31.1342L42.561 27.3614L52.8996 16.7825L53.5721 16.0664C54.1894 15.3949 54.6441 14.8561 54.9513 14.4425C55.3352 13.9255 55.5377 13.5075 55.6325 13.1872L55.6426 13.1545L55.6536 13.1208C55.7569 12.8123 55.824 12.3694 55.7923 11.7487L55.7865 11.7105C55.7861 11.7097 55.7847 11.7073 55.7835 11.7056C55.781 11.7023 55.7763 11.6967 55.7694 11.6892C55.7547 11.6736 55.7271 11.6469 55.6791 11.6125L55.6422 11.5858L55.6061 11.5581C55.4564 11.4399 55.237 11.3382 54.8196 11.3474C54.0163 11.3652 53.786 11.5899 53.7022 11.6958C53.5933 11.8401 53.3484 12.3717 53.3784 13.7211L53.4214 15.6566L43.1549 15.8847L43.1119 13.9491C43.06 11.6107 43.493 9.47515 44.4996 7.61904L44.5044 7.61107L44.6984 7.27041C45.6955 5.58988 47.058 4.26554 48.7692 3.33454L49.1095 3.15684C50.8243 2.29616 52.7415 1.86455 54.8194 1.81836C56.9486 1.77107 58.9088 2.09559 60.6471 2.86026C62.3986 3.59638 63.8226 4.71959 64.8314 6.25084C65.8596 7.77465 66.3667 9.53218 66.4094 11.4519Z" fill="#FFF218"/>
</g>
<defs>
<clipPath id="clip0_851_1141">
<rect width="240" height="40" fill="white"/>
</clipPath>
</defs>
</svg>
