<svg width="120" height="120" viewBox="0 0 120 120" fill="none" xmlns="http://www.w3.org/2000/svg">
<g clip-path="url(#clip0_8897_54469)">
<path d="M114.67 32.4821C113.079 25.9832 106.224 20.1953 99.5181 19.7394C89.4509 19.0828 85.8961 29.3932 82.3173 36.8732C79.5728 42.6297 75.6643 48.2658 69.8594 50.9118C66.4988 52.4533 62.8241 52.8764 59.1702 53.426C49.9259 54.7662 40.6044 56.7432 32.4631 61.3081C24.3218 65.873 17.3647 73.2072 15.0903 82.2926C14.5038 84.5734 14.246 86.9561 14.5494 89.2724C15.13 94.3774 18.1665 98.9219 21.7997 102.51C26.9527 107.59 33.454 111.226 40.4948 112.927C47.0424 114.475 54.1711 114.342 60.1459 111.147C68.6329 106.63 73.0214 97.1181 76.641 88.1492C80.2438 79.2351 84.2316 69.6595 92.4161 64.5674C94.9415 63.0074 97.7865 61.9669 100.312 60.4069C107.926 55.7988 113.747 47.0915 114.882 38.1937C115.182 36.0642 115.05 34.1616 114.67 32.4821Z" fill="#909090" fill-opacity="0.15"/>
<path d="M18.1608 8H62.3392C63.2803 8 64 8.85079 64 9.96335V56.0366C64 57.1492 63.2803 58 62.3392 58H18.1608C17.2197 58 16.5 57.1492 16.5 56.0366V9.96335C16.5 8.91623 17.2197 8 18.1608 8Z" fill="#1C398E"/>
<path d="M23.3323 30.9111H56.9618C57.5514 30.9111 58.0294 30.4107 58.0294 29.7934C58.0294 29.1762 57.5514 28.6758 56.9618 28.6758H23.3323C22.7426 28.6758 22.2646 29.1762 22.2646 29.7934C22.2646 30.4107 22.7426 30.9111 23.3323 30.9111Z" fill="white"/>
<path d="M23.3323 35.9405H56.9618C57.5514 35.9405 58.0294 35.4401 58.0294 34.8228C58.0294 34.2056 57.5514 33.7052 56.9618 33.7052H23.3323C22.7426 33.7052 22.2646 34.2056 22.2646 34.8228C22.2646 35.4401 22.7426 35.9405 23.3323 35.9405Z" fill="white"/>
<path d="M23.3323 40.9699H51.3735C51.9631 40.9699 52.4411 40.4695 52.4411 39.8523C52.4411 39.235 51.9631 38.7346 51.3735 38.7346H23.3323C22.7426 38.7346 22.2646 39.235 22.2646 39.8523C22.2646 40.4695 22.7426 40.9699 23.3323 40.9699Z" fill="white"/>
<path d="M25.1326 15.4594L25.7175 17.0096L27.3048 17.0957C27.639 17.0957 27.8062 17.5264 27.5554 17.6986L26.3023 18.7321L26.72 20.3684C26.8035 20.7129 26.4694 20.9713 26.2188 20.799L24.882 19.8517L23.5453 20.799C23.2946 20.9713 22.9605 20.7129 23.044 20.3684L23.4618 18.7321L22.2086 17.6986C21.9579 17.4402 22.125 17.0957 22.4593 17.0957L24.0465 17.0096L24.6314 15.4594C24.6314 15.201 25.0491 15.201 25.1326 15.4594Z" fill="#FDBD53"/>
<path d="M32.9562 15.4594L33.5411 17.0096L35.1283 17.0957C35.4626 17.0957 35.6297 17.5264 35.3789 17.6986L34.1258 18.7321L34.5436 20.3684C34.6271 20.7129 34.2929 20.9713 34.0423 20.799L32.7055 19.8517L31.3688 20.799C31.1182 20.9713 30.784 20.7129 30.8675 20.3684L31.2853 18.7321L30.0322 17.6986C29.7814 17.4402 29.9485 17.0957 30.2828 17.0957L31.87 17.0096L32.4549 15.4594C32.3714 15.201 32.789 15.201 32.9562 15.4594Z" fill="#FDBD53"/>
<path d="M40.7221 17.0096L40.1374 15.4594C40.0538 15.201 39.6361 15.201 39.7196 15.4594L39.1347 17.0096L37.5475 17.0957C37.2132 17.0957 37.0461 17.4402 37.2969 17.6986L38.55 18.7321L38.1322 20.3684C38.0488 20.7129 38.3829 20.9713 38.6335 20.799L39.9703 19.8517L41.307 20.799C41.5576 20.9713 41.8918 20.7129 41.8083 20.3684L41.3905 18.7321L42.6436 17.6986C42.8944 17.5264 42.7273 17.0957 42.393 17.0957L40.7221 17.0096Z" fill="#FDBD53"/>
<path d="M48.0819 15.4594L48.6581 17.0096L50.2221 17.0957C50.5513 17.0957 50.716 17.5264 50.4691 17.6986L49.2342 18.7321L49.6458 20.3684C49.7281 20.7129 49.3989 20.9713 49.0697 20.799L47.7526 19.8517L46.4356 20.799C46.1887 20.9713 45.8595 20.7129 45.9417 20.3684L46.3533 18.7321L45.1185 17.6986C44.8716 17.4402 45.0362 17.0957 45.3656 17.0957L46.9295 17.0096L47.5056 15.4594C47.5056 15.201 47.9173 15.201 48.0819 15.4594Z" fill="#FDBD53"/>
<path d="M55.9508 17.0096L55.3829 15.4594C55.3019 15.201 54.8963 15.201 54.8151 15.4594L54.2473 17.0096L52.625 17.0957C52.3004 17.0957 52.1382 17.4402 52.3816 17.6986L53.5984 18.7321L53.1928 20.3684C53.1928 20.7129 53.5172 20.9713 53.7606 20.799L55.0585 19.8517L56.3564 20.799C56.6809 20.9713 57.0054 20.7129 56.9242 20.3684L56.5186 18.7321L57.7354 17.6986C57.9788 17.5264 57.8166 17.0957 57.492 17.0957L55.9508 17.0096Z" fill="#FDBD53"/>
<path d="M79.3496 22.3516C79.3496 22.3516 79.6996 29.2516 86.5996 33.1016C92.0996 36.2016 97.4496 35.9016 96.9496 42.0016C96.6996 45.1516 89.2496 47.0016 83.7496 46.3516C80.0996 45.9016 79.5496 54.1016 91.3496 53.0516C103.75 51.9516 105.8 44.6516 106.45 41.7016C107.2 37.9516 104.7 29.5016 93.0496 26.6016C79.9496 23.2516 79.3496 22.3516 79.3496 22.3516Z" fill="#EEC0BB"/>
<path d="M77.3998 110.45C77.8998 112.55 77.1498 114.55 76.8998 115.15H74.8998C74.8998 114.65 74.8998 112.85 74.2998 113C73.6498 113.15 72.3498 114.9 72.1498 115.15H67.3498H66.8998C66.8998 115.15 66.5498 115.05 66.6498 114.1C66.7498 113.15 68.2498 113.45 69.5998 112.8C72.4498 111.5 73.2498 109.25 73.5498 108.5C73.8498 107.8 74.3498 104.6 74.3498 104.6C74.3498 104.6 78.1498 104.2 78.1498 104.6C78.1498 105.05 77.0998 108.85 77.3998 110.45Z" fill="#DA3404"/>
<path d="M96.7504 110.45C97.2504 112.55 96.5004 114.55 96.2504 115.15H94.2504C94.2504 114.65 94.2504 112.85 93.6504 113C93.0004 113.15 91.7004 114.9 91.5004 115.15H86.7004H86.2504C86.2504 115.15 85.9004 115.05 86.0004 114.1C86.1004 113.15 87.6004 113.45 88.9504 112.8C91.8004 111.5 92.6004 109.25 92.9004 108.5C93.2004 107.8 93.7004 104.6 93.7004 104.6C93.7004 104.6 97.5004 104.2 97.5004 104.6C97.5004 105.05 96.4504 108.85 96.7504 110.45Z" fill="#DA3404"/>
<path d="M95.1496 37.2516C93.1996 36.0516 89.5496 34.7516 86.5996 33.1016C79.6996 29.2516 79.3496 22.3516 79.3496 22.3516C79.3496 22.3516 80.0496 22.9516 93.0996 26.2016C95.8996 26.9016 97.9996 28.2516 99.8496 29.4516C99.8496 29.4516 99.3496 31.4016 97.9996 33.7016C96.8496 35.6516 95.1496 37.2516 95.1496 37.2516Z" fill="#DA3404"/>
<path d="M71.2503 12.2484C71.2503 12.2484 67.5003 24.7484 75.7003 20.3484L75.3503 28.1984L81.5503 22.1484L79.3003 14.4984C79.3003 14.4984 80.1503 7.09836 71.2503 12.2484Z" fill="#EEC0BB"/>
<path d="M70.8004 14.5508L70.6004 14.9008L69.1504 17.5508L70.5504 17.9008L70.8004 14.5508Z" fill="#EEC0BB"/>
<path d="M81.2497 46.9016C81.2497 46.9016 91.6497 47.6016 99.4497 43.1016C99.4497 43.1016 102.55 50.4016 99.9497 60.5016C97.3497 70.6516 93.9497 88.4016 99.3997 106.802C99.3997 106.802 95.2497 108.952 91.5997 107.652C91.5997 107.652 83.3997 88.0516 83.8497 75.3516C83.8497 75.3516 77.2497 86.8516 80.0497 107.152C80.0497 107.152 75.7997 108.802 71.9997 107.402C71.9997 107.402 69.1497 97.9516 68.8997 87.8516C68.6497 77.7016 71.0497 66.4516 74.5497 59.1516C78.1997 51.8516 80.3997 49.0516 81.2497 46.9016Z" fill="#008363"/>
<path d="M67.9505 29.3992C71.7505 22.2492 78.8005 21.6992 78.8005 21.6992C78.8005 21.6992 77.9005 22.3492 74.8505 35.8492C72.1505 47.8492 63.5505 50.6492 59.7005 49.9492C56.6505 49.3992 49.1505 47.4492 47.7005 34.7992C47.5552 33.5533 47.5155 32.4405 47.5606 31.4508L47.5505 31.4492C47.5575 31.3769 47.5648 31.3025 47.5724 31.2262C47.6054 30.6749 47.6652 30.1631 47.748 29.6888C48.0948 26.9901 48.7528 23.5395 49.8005 23.4992C50.1005 23.4492 50.2505 23.7492 50.3505 24.0992C50.6005 23.6992 50.9005 23.4492 51.2005 23.4992C51.5005 23.5492 51.7005 23.8492 51.8005 24.2492C52.1005 23.8492 52.4505 23.5492 52.7505 23.5992C53.1315 23.6468 53.331 24.1479 53.2628 24.8433C53.2856 24.8549 53.3081 24.8669 53.3304 24.8792C53.3505 24.8197 53.3505 24.7731 53.3505 24.6992C53.5005 23.1492 54.0505 21.9992 54.5005 22.0492C54.9505 22.1492 55.0505 22.6492 54.7505 26.1492C54.5771 27.45 54.3285 29.3148 54.4285 31.5154C54.9572 35.9511 56.7021 40.1016 59.1005 40.2492C63.6637 40.5027 64.6856 37.6872 66.0422 33.9495C66.5586 32.5269 67.1235 30.9707 67.9505 29.3992Z" fill="#EEC0BB"/>
<path d="M100.65 42.4997C93.2502 48.4997 80.6502 47.1497 80.6502 47.1497C78.4624 43.9521 76.3167 40.6655 74.7374 37.5421C74.0334 39.6371 73.0098 41.3803 72.0502 42.8997C72.0502 42.8997 70.0502 42.4497 67.6502 41.0997C65.6002 39.9997 63.9502 38.2497 63.9502 38.2497C64.5557 37.2154 65.1611 35.7483 65.818 34.1566C66.463 32.5937 67.1575 30.9108 67.9502 29.3997C71.7502 22.2997 78.8002 21.6997 78.8002 21.6997C78.8002 21.6997 78.7885 21.7144 78.76 21.7766C78.79 21.7676 78.82 21.7586 78.8502 21.7497C92.5002 17.6497 100.65 42.4997 100.65 42.4997Z" fill="#DA3404"/>
<path fill-rule="evenodd" clip-rule="evenodd" d="M80.4308 10.9571C80.4863 10.9956 80.5421 11.0337 80.598 11.0719C80.9204 11.2923 81.2429 11.5127 81.5 11.7984C82.3 12.5484 82.35 13.6984 82.3 14.7984C82.2 16.9484 80.7 18.4484 80.2 18.8984C79.55 19.4984 78.4 19.3984 77.75 18.7984C77.05 18.1984 76.7 17.3484 76.45 16.4484L76.2 16.2984C76.15 15.2984 75.1 14.6484 74.1 14.3984C73.8714 14.3383 73.634 14.2868 73.395 14.2349C72.6408 14.0713 71.8695 13.904 71.3 13.4484C70.8 13.0484 70.5 12.4484 70.5 11.7984C70.5 11.1984 70.85 10.4984 71.45 10.2484C71.725 10.1234 72.025 10.0734 72.325 10.0234C72.625 9.97344 72.925 9.92344 73.2 9.79844C73.5 9.63177 73.7556 9.37621 74.0111 9.12066C74.1389 8.99288 74.2667 8.8651 74.4 8.74844C75.55 7.74844 77.5 7.79844 78.6 8.94844C78.763 9.12954 78.9063 9.33032 79.049 9.53415C79.8456 7.38129 82.1081 5.83561 84.6 5.39844C89.45 4.49844 92.6 7.49844 94 9.59844C94.4842 10.3538 94.8184 11.1542 95.1507 11.9502C95.6763 13.2091 96.1973 14.457 97.3 15.4984C98.27 16.4685 99.4129 17.0065 100.566 17.5493C101.374 17.9298 102.188 18.3127 102.95 18.8484C103.9 19.5484 105 20.3984 105.65 21.4484C106.25 22.3484 106.75 23.2984 107.1 24.2984C109.3 31.3484 99.7 37.4984 93.05 35.8984C89.95 35.1484 87.15 32.8484 85.8 30.0484C84.7322 27.9128 85.0024 25.2827 85.2573 22.8015C85.3366 22.0296 85.4144 21.2721 85.45 20.5484C85.4621 19.9535 85.4979 19.3557 85.5336 18.7585C85.6448 16.8962 85.7557 15.04 85.15 13.2984C84.85 12.4984 84.45 11.6484 83.85 11.0984C83.15 10.5484 82.2 10.1984 81.35 10.4984C81.0532 10.5794 80.8002 10.7331 80.5436 10.8889C80.5061 10.9116 80.4686 10.9345 80.4308 10.9571Z" fill="#591D06"/>
<rect x="37" y="72.5" width="19.8444" height="19" rx="4" fill="#DA3404"/>
<path d="M52.2365 75.8789H41.1862C40.7408 75.8789 40.3779 76.2418 40.3779 76.6871V87.7374C40.3779 88.1827 40.7408 88.5456 41.1862 88.5456H52.2365C52.6818 88.5456 53.0446 88.1827 53.0446 87.7374V76.6871C53.0446 76.2418 52.6818 75.8789 52.2365 75.8789ZM47.8658 78.4188C48.3936 78.4188 48.8389 78.8477 48.8389 79.3919C48.8389 79.9197 48.4101 80.365 47.8658 80.365C47.3215 80.365 46.8927 79.9362 46.8927 79.3919C46.8927 78.8477 47.3215 78.4188 47.8658 78.4188ZM50.6696 87.0942H42.753C42.1427 87.0942 41.7469 86.4345 42.0437 85.8902L44.5012 81.4536C44.7816 80.9423 45.5073 80.8928 45.8701 81.3711L47.2886 83.3008C47.5854 83.7131 48.1956 83.7461 48.542 83.3668C48.9048 82.9709 49.5316 83.0204 49.812 83.4657L51.3458 85.8407C51.6921 86.385 51.2964 87.0942 50.6696 87.0942Z" fill="white"/>
<path d="M2.5 54C2.5 51.7909 4.29086 50 6.5 50H38C40.2091 50 42 51.7909 42 54V71.2361C42 73.4452 40.2091 75.2361 38 75.2361H6.5C4.29086 75.2361 2.5 73.4453 2.5 71.2361V54Z" fill="#008363"/>
<ellipse cx="22.2503" cy="61.5208" rx="6.58333" ry="6.58333" fill="#FDBD53"/>
<path d="M24.811 60.8866C25.2987 61.1681 25.2987 61.872 24.811 62.1536L20.9707 64.3707C20.4831 64.6523 19.8735 64.3003 19.8735 63.7373L19.8735 59.3029C19.8735 58.7398 20.4831 58.3879 20.9707 58.6694L24.811 60.8866Z" fill="white"/>
<rect x="5.79199" y="71.3945" width="32.9167" height="1.09722" rx="0.548611" fill="#D9D9D9"/>
<ellipse cx="12.3753" cy="71.9427" rx="1.64583" ry="1.64583" fill="#DA3404"/>
<path d="M77.2995 17.4491C78.0995 17.2491 78.5995 16.3991 78.3495 15.5991C78.1495 14.7991 77.2995 14.2991 76.4995 14.5491C75.6995 14.7491 75.1995 15.5991 75.4495 16.3991C75.6995 17.1991 76.4995 17.6991 77.2995 17.4491Z" fill="#EEC0BB"/>
</g>
<defs>
<clipPath id="clip0_8897_54469">
<rect width="120" height="120" fill="white"/>
</clipPath>
</defs>
</svg>
